<svg xmlns="http://www.w3.org/2000/svg" width="38.479" height="38.479" viewBox="0 0 38.479 38.479">
  <path id="Icon_ionic-ios-close-circle" data-name="Icon ionic-ios-close-circle" d="M22.615,3.375a19.24,19.24,0,1,0,19.24,19.24A19.237,19.237,0,0,0,22.615,3.375Zm4.875,26.2L22.615,24.7,17.74,29.58a1.478,1.478,0,1,1-2.09-2.09l4.875-4.875L15.649,17.74a1.478,1.478,0,0,1,2.09-2.09l4.875,4.875,4.875-4.875a1.478,1.478,0,1,1,2.09,2.09L24.7,22.615l4.875,4.875a1.485,1.485,0,0,1,0,2.09A1.468,1.468,0,0,1,27.489,29.58Z" transform="translate(-3.375 -3.375)" fill="#f48221"/>
</svg>
