<svg xmlns="http://www.w3.org/2000/svg" width="73" height="73" viewBox="0 0 73 73">
  <g id="Group_254" data-name="Group 254" transform="translate(-1712 -1976)">
    <g id="Ellipse_8" data-name="Ellipse 8" transform="translate(1712 1976)" fill="#fff" stroke="#707070" stroke-width="1">
      <circle cx="36.5" cy="36.5" r="36.5" stroke="none"/>
      <circle cx="36.5" cy="36.5" r="36" fill="none"/>
    </g>
    <path id="Icon_ionic-ios-arrow-round-forward" data-name="Icon ionic-ios-arrow-round-forward" d="M27.19,11.638a1.375,1.375,0,0,0-.011,1.936l6.4,6.407H9.232a1.368,1.368,0,0,0,0,2.735H33.565l-6.4,6.407a1.385,1.385,0,0,0,.011,1.936,1.362,1.362,0,0,0,1.925-.011l8.668-8.732h0a1.536,1.536,0,0,0,.284-.431,1.305,1.305,0,0,0,.105-.526,1.371,1.371,0,0,0-.389-.957L29.1,11.67A1.34,1.34,0,0,0,27.19,11.638Z" transform="translate(1725.258 1991.156)" fill="#fff"/>
  </g>
</svg>
